<?xml version="1.0" encoding="utf-8"?>
<!-- Generator: Adobe Illustrator 22.1.0, SVG Export Plug-In . SVG Version: 6.00 Build 0)  -->
<svg version="1.1" id="Layer_1" xmlns="http://www.w3.org/2000/svg" xmlns:xlink="http://www.w3.org/1999/xlink" x="0px" y="0px"
	 viewBox="0 0 82 82" style="enable-background:new 0 0 82 82;" xml:space="preserve">
<style type="text/css">
	.st0{fill:#F8F9FE;}
	.st1{fill:none;stroke:#d33b06;stroke-width:3.2526;stroke-linecap:round;stroke-linejoin:round;stroke-miterlimit:10;}
	.st2{fill:none;stroke:#d33b06;stroke-width:3.5;stroke-linecap:round;stroke-linejoin:round;stroke-miterlimit:10;}
	.st3{fill:none;stroke:#d33b06;stroke-width:2.8908;stroke-linecap:round;stroke-linejoin:round;stroke-miterlimit:10;}
	.st4{fill:#FFFFFF;stroke:#d33b06;stroke-width:3.2526;stroke-miterlimit:10;}
	.st5{fill:#FFFFFF;stroke:#d33b06;stroke-width:3.5;stroke-miterlimit:10;}
	.st6{fill:none;stroke:#d33b06;stroke-width:3;stroke-linecap:round;stroke-linejoin:round;stroke-miterlimit:10;}
	.st7{fill:#FFFFFF;stroke:#d33b06;stroke-width:3.1678;stroke-linecap:round;stroke-linejoin:round;stroke-miterlimit:10;}
	.st8{fill:none;stroke:#d33b06;stroke-width:3.1678;stroke-linecap:round;stroke-linejoin:round;stroke-miterlimit:10;}
	.st9{fill:#d33b06;}
</style>
<g>
	<path class="st2" d="M57.8,23.7H24.1c-5.1,0-9.3,4.2-9.3,9.3v31.3c0,4.4,3.5,7.9,7.9,7.9h36.5c4.4,0,7.9-3.5,7.9-7.9V33
		C67.1,27.8,63,23.7,57.8,23.7z"/>
	<path class="st2" d="M14.8,56.5h-4.5c-1.6,0-2.9-1.3-2.9-2.9V41.7c0-1.6,1.3-2.9,2.9-2.9h4.5V56.5z"/>
	<path class="st2" d="M67.2,56.5h4.5c1.6,0,2.9-1.3,2.9-2.9V41.7c0-1.6-1.3-2.9-2.9-2.9h-4.5V56.5z"/>
	<circle class="st2" cx="41.1" cy="9.7" r="6.8"/>
	<line class="st2" x1="41.1" y1="23.7" x2="41.1" y2="16.4"/>
	<circle class="st2" cx="52" cy="41.8" r="5.5"/>
	<circle class="st2" cx="30.3" cy="41.8" r="5.5"/>
	<rect x="30.5" y="55.6" class="st2" width="21.3" height="6.1"/>
</g>
</svg>
