<svg xmlns="http://www.w3.org/2000/svg" xmlns:xlink="http://www.w3.org/1999/xlink" viewBox="0 0 353 157.6"><path d="M22 120.1v5.2h-8.1v26H8.1v-26h-8v-5.2zm32.9 0H61v31.3h-6.1zm28.3 0h-6.3l-11.3 31.3h6.1l2.1-6.4h11.8l2 6.4h6.6l-11-31.3zm-8 20.2l4.3-13.3 4.3 13.3h-8.6zm31.6-20.2l12.2 21.8v-21.8h5.7v31.2h-7.8l-12.1-21.7v21.7H99v-31.2zm45 0v5.5l-13 20.2h13v5.5h-19.9v-5.7l13-20.3h-13v-5.2zM39.3 137.5c4.2-.3 7.4-3.5 7.8-7.5.4-5-2-7.4-3.5-8.4-2.6-1.8-5.8-1.5-16.7-1.5v31.3H33v-12.7l8.7 12.7h7.2c-.1-.1-6.6-9.1-9.6-13.9zm-6.4-3.2v-9.5c4.5 0 5.2.2 6.2.9.6.4 2.1 1.7 1.9 4.5-.1 2.2-2 3.9-4.2 4.1-2.3.2-3.9 0-3.9 0zm123.8-10v-4.2h.8l1 3c.1.3.2.5.2.6 0-.2.1-.4.2-.7l1-2.9h.7v4.2h-.5v-3.5l-1.2 3.5h-.5l-1.2-3.6v3.6h-.5zm-4.1-1.4h.7c0 .3.1.5.3.6s.4.2.7.2.5-.1.7-.2.2-.3.2-.4c0-.2-.1-.3-.2-.4s-.3-.1-.7-.2c-.5-.1-.8-.2-1-.3a.78.78 0 0 1-.4-.4c-.1-.2-.2-.3-.2-.5s0-.3.1-.5a1.38 1.38 0 0 1 .3-.4c.1-.1.3-.1.4-.2.2-.1.4-.1.6-.1.3 0 .6 0 .8.1s.4.2.5.4.2.4.2.7h-.7a.55.55 0 0 0-.3-.5c-.1-.1-.4-.2-.6-.2-.3 0-.5.1-.7.2-.1.1-.2.2-.2.4 0 .1 0 .2.1.2.1.1.1.1.3.2.1 0 .3.1.6.2.5.1.8.2 1 .3s.3.2.5.4c.1.2.2.4.2.6s-.1.4-.2.6-.3.4-.6.5c-.2.1-.5.2-.8.2-.5 0-.9-.1-1.2-.3-.1-.4-.4-.8-.4-1.2z"/><path d="M206.3 147.1c0 1.8-.6 3.2-1.9 4.2s-3 1.5-5.3 1.5c-2.4 0-4.2-.3-5.5-.9v-2.3c.8.4 1.7.6 2.7.8s1.9.3 2.9.3c1.6 0 2.8-.3 3.5-.9.8-.6 1.2-1.4 1.2-2.5 0-.7-.1-1.3-.4-1.7s-.8-.9-1.4-1.2c-.7-.4-1.7-.8-3-1.3-1.9-.7-3.2-1.5-4-2.4s-1.2-2.1-1.2-3.6c0-1.6.6-2.8 1.8-3.7s2.7-1.4 4.7-1.4 3.9.4 5.6 1.1l-.7 2.1c-1.7-.7-3.3-1.1-4.9-1.1-1.2 0-2.2.3-2.9.8s-1.1 1.3-1.1 2.2c0 .7.1 1.3.4 1.7s.7.9 1.3 1.2c.6.4 1.6.8 2.8 1.2 2.1.8 3.6 1.6 4.4 2.4.6 1 1 2.1 1 3.5zm4.1 5.4v-20.3h2.4v20.3h-2.4zm16.9 0l-6.9-18h-.1l.2 5.1v12.9h-2.2v-20.3h3.5l6.4 16.7h.1l6.5-16.7h3.5v20.3H236v-13.1l.2-4.9h-.1l-6.9 17.9h-1.9v.1zm29.5-14.4c0 2-.7 3.6-2.1 4.7s-3.4 1.7-6 1.7h-2.4v8h-2.4v-20.3h5.3c5 0 7.6 2 7.6 5.9zm-10.5 4.4h2.1c2.1 0 3.6-.3 4.5-1s1.4-1.8 1.4-3.2c0-1.3-.4-2.3-1.3-3s-2.2-1-4.1-1h-2.6v8.2zm14.7 10v-20.3h2.4v18.1h8.9v2.1l-11.3.1zm14.7 0v-20.3h2.4v20.3h-2.4zm10.3 0h-2.4v-20.3h11.3v2.1H286v7.4h8.4v2.1H286v8.7zm12.3 0v-20.3h2.4v20.3h-2.4zm19.2 0h-11.3v-20.3h11.3v2.1h-8.9v6.5h8.4v2.1h-8.4v7.5h8.9v2.1zm20.7-10.4c0 3.3-.9 5.9-2.7 7.7s-4.4 2.7-7.8 2.7H322v-20.3h6.2c3.1 0 5.6.9 7.3 2.6 1.8 1.8 2.7 4.2 2.7 7.3zm-2.5.1c0-2.6-.7-4.6-2-6-1.3-1.3-3.3-2-5.9-2h-3.4v16.2h2.9c2.8 0 4.9-.7 6.3-2.1 1.3-1.3 2.1-3.4 2.1-6.1zm3.5-5.7h-.7v-3.7h-1.3v-.6h3.2v.6h-1.3l.1 3.7zm3.8 0l-1.2-3.6v3.6h-.6v-4.3h1l1.2 3.4 1.2-3.4h1v4.3h-.7V133l-1.3 3.6-.6-.1z" fill="#595959"/><g fill="#fc6b02"><path d="M205.1 119.6h-11.3V99.3h11.3v2.1h-8.9v6.5h8.4v2.1h-8.4v7.5h8.9v2.1zm16.1-20.3h2.5l-7.3 20.3h-2.3l-7.3-20.3h2.5l4.7 13.1 1.3 4.4c.3-1.5.8-3 1.3-4.5l4.6-13z"/><use xlink:href="#B"/><path d="M248.6 119.6V99.3h2.4v18.1h8.9v2.1l-11.3.1zm30-20.3v13.1c0 2.3-.7 4.1-2.1 5.4s-3.3 2-5.7 2-4.3-.7-5.7-2c-1.3-1.3-2-3.2-2-5.5v-13h2.4v13.2c0 1.7.5 3 1.4 3.9s2.3 1.4 4.1 1.4c1.7 0 3-.5 3.9-1.4s1.4-2.2 1.4-3.9V99.3h2.3zm11.6 20.3h-2.4v-18.2h-6.4v-2.1h15.2v2.1h-6.4v18.2zm9.5 0V99.3h2.4v20.3h-2.4z"/><use xlink:href="#B" x="81.1"/><path d="M345.5 119.6h-2.7l-11.1-17h-.1l.2 5.5v11.5h-2.2V99.3h2.7l11 16.9h.1l-.1-2.4-.1-2.9V99.3h2.2v20.3h.1zM210 76.1c0 3.3-.9 5.9-2.7 7.7s-4.4 2.7-7.8 2.7h-5.6V66.1h6.2c3.1 0 5.6.9 7.3 2.6 1.7 1.8 2.6 4.2 2.6 7.4zm-2.5.1c0-2.6-.7-4.6-2-6-1.3-1.3-3.3-2-5.9-2h-3.4v16.2h2.9c2.8 0 4.9-.7 6.3-2.1s2.1-3.4 2.1-6.1zm7 10.2V66.1h2.4v20.3h-2.4zm16.8-10.6h6.9v9.9l-3.3.8c-1.1.2-2.4.3-3.9.3-3.1 0-5.5-.9-7.2-2.7s-2.6-4.4-2.6-7.7c0-2.1.4-4 1.3-5.5.8-1.6 2.1-2.8 3.7-3.6s3.5-1.3 5.6-1.3c2.2 0 4.2.4 6 1.2l-.9 2.1c-1.8-.8-3.6-1.2-5.3-1.2-2.5 0-4.4.7-5.8 2.2s-2.1 3.5-2.1 6.1c0 2.7.7 4.8 2 6.2s3.3 2.1 5.9 2.1c1.4 0 2.8-.2 4.1-.5V78h-4.5v-2.2h.1zm11.8 10.6V66.1h2.4v20.3h-2.4zm14.1 0h-2.4V68.2h-6.4v-2.1h15.2v2.1h-6.4v18.2zm22.2 0l-2.5-6.4h-8.1l-2.5 6.4h-2.4l8-20.3h2l8 20.3h-2.5zm-3.2-8.6l-2.4-6.3c-.3-.8-.6-1.8-.9-2.9-.2.9-.5 1.9-.9 2.9l-2.4 6.3h6.6zm8.4 8.6V66.1h2.4v18.1h8.9v2.1h-11.3v.1z"/></g><path d="M58.8 24v10.9l31.6 18.2 9.4-5.5zM122 60.4l-5.6-3.3-9.5 5.5 2.1 1.2.2.1c.2.1.3.4.3.6 0 .3-.1.5-.3.6l-.2.1-52.5 30.2s-.2.2-.5.2c-.4 0-.7-.3-.8-.7V15.5c0-.4.4-.7.8-.7.1 0 .2 0 .3.1l.2.1 52.6 30.3c.2.1.3.4.3.6 0 .3-.1.5-.3.6l-.2.1-50.1 28.8v10.9L122 49.9c1.4-.8 2.4-2.3 2.4-4.1s-1-3.3-2.4-4.1L53 2c-.7-.4-1.6-.7-2.5-.7-2.6 0-4.7 2.1-4.7 4.7v98.3c0 2.6 2.1 4.7 4.7 4.7.9 0 1.7-.2 2.4-.6L122 68.6a4.62 4.62 0 0 0 1.7-1.7c1.3-2.3.5-5.2-1.7-6.5zm-85.2-49c-.7-.4-1.5-.6-2.4-.6-2.6 0-4.7 2.1-4.7 4.7v79.4c0 2.6 2.1 4.7 4.7 4.7.9 0 1.7-.2 2.4-.6l5.5-3.1v-11L40.4 86h-.2c-.1 0-.2.1-.3.1-.4 0-.7-.3-.8-.7V24.9c.1-.4.4-.7.8-.7.1 0 .2 0 .3.1l.2.1 1.9 1.1v-11l-5.5-3.1z" fill="#09c"/><path d="M173.4 64.1h1v92.6h-1z" fill="#fc6b02"/><defs ><path id="B" d="M244.1 109.4c0 3.2-.8 5.8-2.5 7.6-1.6 1.9-3.9 2.8-6.8 2.8-3 0-5.3-.9-6.9-2.7s-2.4-4.4-2.4-7.7.8-5.9 2.4-7.7 3.9-2.7 6.9-2.7c2.9 0 5.2.9 6.8 2.8 1.7 1.8 2.5 4.4 2.5 7.6zm-16.2 0c0 2.7.6 4.8 1.8 6.2s2.9 2.1 5.1 2.1 3.9-.7 5.1-2.1c1.1-1.4 1.7-3.5 1.7-6.2s-.6-4.8-1.7-6.2-2.8-2.1-5.1-2.1c-2.2 0-4 .7-5.1 2.1-1.2 1.5-1.8 3.5-1.8 6.2z"/></defs></svg>