<?xml version="1.0" encoding="utf-8"?>
<!-- Generator: Adobe Illustrator 22.1.0, SVG Export Plug-In . SVG Version: 6.00 Build 0)  -->
<svg version="1.1" id="Layer_1" xmlns="http://www.w3.org/2000/svg" xmlns:xlink="http://www.w3.org/1999/xlink" x="0px" y="0px"
	 viewBox="0 0 82 82" style="enable-background:new 0 0 82 82;" xml:space="preserve">
<style type="text/css">
	.st0{fill:#F8F9FE;}
	.st1{fill:none;stroke:#d33b06;stroke-width:3.2526;stroke-linecap:round;stroke-linejoin:round;stroke-miterlimit:10;}
	.st2{fill:none;stroke:#d33b06;stroke-width:3.5;stroke-linecap:round;stroke-linejoin:round;stroke-miterlimit:10;}
	.st3{fill:none;stroke:#d33b06;stroke-width:2.8908;stroke-linecap:round;stroke-linejoin:round;stroke-miterlimit:10;}
	.st4{fill:#FFFFFF;stroke:#d33b06;stroke-width:3.2526;stroke-miterlimit:10;}
	.st5{fill:#FFFFFF;stroke:#d33b06;stroke-width:3.5;stroke-miterlimit:10;}
	.st6{fill:none;stroke:#d33b06;stroke-width:3;stroke-linecap:round;stroke-linejoin:round;stroke-miterlimit:10;}
	.st7{fill:#FFFFFF;stroke:#d33b06;stroke-width:3.1678;stroke-linecap:round;stroke-linejoin:round;stroke-miterlimit:10;}
	.st8{fill:none;stroke:#d33b06;stroke-width:3.1678;stroke-linecap:round;stroke-linejoin:round;stroke-miterlimit:10;}
	.st9{fill:#d33b06;}
</style>
<g>
	<polyline class="st2" points="34.1,40.6 38.3,44.7 46.1,36.8 	"/>
	<circle class="st2" cx="40.1" cy="40.8" r="14.2"/>
	<g>
		<path class="st2" d="M68.4,25.1c0-1.8-0.1-3.4-0.1-5.1c0-1.3-1-2.3-2.3-2.3c-9.8,0-17.3-2.8-23.5-8.9c-0.9-0.9-2.3-0.9-3.2,0
			c-6.2,6-13.7,8.9-23.5,8.9c-1.3,0-2.3,1-2.3,2.3c0,1.6,0,3.3-0.1,5.1c-0.3,16.5-0.7,39,26.7,48.5c0.2,0.1,0.5,0.1,0.8,0.1
			s0.5,0,0.8-0.1C69.2,64.1,68.8,41.6,68.4,25.1z"/>
	</g>
</g>
</svg>
