<?xml version="1.0" encoding="utf-8"?>
<!-- Generator: Adobe Illustrator 22.1.0, SVG Export Plug-In . SVG Version: 6.00 Build 0)  -->
<svg version="1.1" id="Layer_1" xmlns="http://www.w3.org/2000/svg" xmlns:xlink="http://www.w3.org/1999/xlink" x="0px" y="0px"
	 viewBox="0 0 82 82" style="enable-background:new 0 0 82 82;" xml:space="preserve">
<style type="text/css">
	.st0{fill:#F8F9FE;}
	.st1{fill:none;stroke:#d33b06;stroke-width:3.2526;stroke-linecap:round;stroke-linejoin:round;stroke-miterlimit:10;}
	.st2{fill:none;stroke:#d33b06;stroke-width:3.5;stroke-linecap:round;stroke-linejoin:round;stroke-miterlimit:10;}
	.st3{fill:none;stroke:#d33b06;stroke-width:2.8908;stroke-linecap:round;stroke-linejoin:round;stroke-miterlimit:10;}
	.st4{fill:#FFFFFF;stroke:#d33b06;stroke-width:3.2526;stroke-miterlimit:10;}
	.st5{fill:#FFFFFF;stroke:#d33b06;stroke-width:3.5;stroke-miterlimit:10;}
	.st6{fill:none;stroke:#d33b06;stroke-width:3;stroke-linecap:round;stroke-linejoin:round;stroke-miterlimit:10;}
	.st7{fill:#FFFFFF;stroke:#d33b06;stroke-width:3.1678;stroke-linecap:round;stroke-linejoin:round;stroke-miterlimit:10;}
	.st8{fill:none;stroke:#d33b06;stroke-width:3.1678;stroke-linecap:round;stroke-linejoin:round;stroke-miterlimit:10;}
	.st9{fill:#d33b06;}
</style>
<g>
	<path class="st2" d="M48.5,73.6c0-4.2,0-4.1,0-8.2c-3,0.4-5.7-1.8-5.8-4.7c-0.1-3.3,2.8-5.6,5.8-5.2c0-2.5,0-4.2,0-6.6h-6.7
		c0.4-2.9-1.7-5.7-4.7-5.8c-3.2-0.1-5.6,2.8-5.2,5.8h-8.2v20.4c0,2.4,1.9,4.4,4.4,4.4H50v0C49.1,73.6,48.6,73.6,48.5,73.6z"/>
	<path class="st2" d="M60.3,54.7c-3.2,0.1-5.6-2.7-5.2-5.8h-6.6c0,2.5,0,4.1,0,6.6c-3-0.5-5.9,1.9-5.8,5.2c0.1,2.9,2.8,5.1,5.8,4.7
		c0,4.1,0,4.1,0,8.2c0.6,0,21,0,20.4,0c2.4,0,4.4-1.9,4.4-4.4V48.9h-8.2C65.4,51.8,63.3,54.6,60.3,54.7z"/>
	<path class="st2" d="M39.4,15.5c1.5,2.5,0.3,5.8-2.5,7.1l4.3,7L35.4,33c-1.2-2.7-4.4-4-7.1-2.5c-2.8,1.6-3.4,5.3-1.4,7.6l-7,4.3
		L9.4,25c-1.3-2.1-0.6-4.7,1.4-6L28.2,8.4l3.5,5.7C34,12.1,37.7,12.6,39.4,15.5z"/>
	<path class="st2" d="M55.2,48.9c-0.5,3,2,5.9,5.2,5.8c3-0.1,5.1-2.9,4.7-5.8h8.2V28.5c0-2.4-1.9-4.4-4.4-4.4H48.5v6.7
		c3-0.5,5.9,1.9,5.8,5.2c-0.1,2.9-2.8,5.1-5.8,4.7v8.2L55.2,48.9z"/>
</g>
</svg>
