<?xml version="1.0" encoding="utf-8"?>
<!-- Generator: Adobe Illustrator 22.1.0, SVG Export Plug-In . SVG Version: 6.00 Build 0)  -->
<svg version="1.1" id="Layer_1" xmlns="http://www.w3.org/2000/svg" xmlns:xlink="http://www.w3.org/1999/xlink" x="0px" y="0px"
	 viewBox="0 0 82 82" style="enable-background:new 0 0 82 82;" xml:space="preserve">
<style type="text/css">
	.st0{fill:#F8F9FE;}
	.st1{fill:none;stroke:#d33b06;stroke-width:3.2526;stroke-linecap:round;stroke-linejoin:round;stroke-miterlimit:10;}
	.st2{fill:none;stroke:#d33b06;stroke-width:3.5;stroke-linecap:round;stroke-linejoin:round;stroke-miterlimit:10;}
	.st3{fill:none;stroke:#d33b06;stroke-width:2.8908;stroke-linecap:round;stroke-linejoin:round;stroke-miterlimit:10;}
	.st4{fill:#FFFFFF;stroke:#d33b06;stroke-width:3.2526;stroke-miterlimit:10;}
	.st5{fill:#FFFFFF;stroke:#d33b06;stroke-width:3.5;stroke-miterlimit:10;}
	.st6{fill:none;stroke:#d33b06;stroke-width:3;stroke-linecap:round;stroke-linejoin:round;stroke-miterlimit:10;}
	.st7{fill:#FFFFFF;stroke:#d33b06;stroke-width:3.1678;stroke-linecap:round;stroke-linejoin:round;stroke-miterlimit:10;}
	.st8{fill:none;stroke:#d33b06;stroke-width:3.1678;stroke-linecap:round;stroke-linejoin:round;stroke-miterlimit:10;}
	.st9{fill:#d33b06;}
</style>
<g>
	<path class="st2" d="M46.9,58.2c0-2.9,1.2-5.7,3.5-7.5c3.7-2.9,6.1-7.4,6.1-12.5c0-9-7.5-16.2-16.6-15.8c-8.1,0.4-14.7,7.1-15,15.2
		c-0.2,5.3,2.3,10,6.1,13c2.3,1.8,3.5,4.6,3.5,7.5v3.9L46.9,58.2z"/>
	<path class="st2" d="M34.7,62.2l12.2-3.9"/>
	<path class="st2" d="M34.7,68l12.2-3.9"/>
	<path class="st2" d="M34.7,73.8l12.2-3.9"/>
	<line class="st2" x1="41" y1="8.2" x2="41" y2="14.4"/>
	<line class="st2" x1="62.2" y1="17" x2="57.8" y2="21.4"/>
	<line class="st2" x1="71" y1="38.2" x2="64.7" y2="38.2"/>
	<line class="st2" x1="62.2" y1="59.4" x2="57.8" y2="55"/>
	<line class="st2" x1="19.8" y1="59.4" x2="24.2" y2="55"/>
	<line class="st2" x1="17.3" y1="38.2" x2="11" y2="38.2"/>
	<line class="st2" x1="24.2" y1="21.4" x2="19.8" y2="17"/>
</g>
</svg>
